<?xml version="1.0" encoding="UTF-8"?>
<!--
  Conek AI app icon source (1024x1024 logical canvas).
  Geometry copied from public/brand/mark.svg / src/components/layouts/conek-logo.tsx:
  teal circle, white ring interrupted by an upward peak, two legs.
  Consumed by @capacitor/assets (pnpm run resources).
-->
<svg xmlns="http://www.w3.org/2000/svg" viewBox="0 0 100 100" width="1024" height="1024">
  <circle cx="50" cy="50" r="50" fill="#3ABFC6"/>
  <mask id="conek-peak-gap">
    <rect width="100" height="100" fill="white"/>
    <polygon points="46,32 54,32 70,70 30,70" fill="black"/>
  </mask>
  <path fill="#fff" fill-rule="evenodd" mask="url(#conek-peak-gap)" d="M50 21a24 24 0 1 1 0 48 24 24 0 0 1 0-48Zm0 11a13 13 0 1 0 0 26 13 13 0 0 0 0-26Z"/>
  <polygon fill="#fff" points="50,33 65,66 35,66"/>
  <path d="M31 61 22 84M69 61l9 23" stroke="#fff" stroke-width="7" stroke-linecap="round" fill="none"/>
</svg>
