<?xml version="1.0" encoding="UTF-8"?>
<!--
  Conek AI splash source (2732x2732, Capacitor's universal splash size).
  Dark calm background with the centered brand mark; consumed by
  @capacitor/assets (pnpm run resources).
-->
<svg xmlns="http://www.w3.org/2000/svg" viewBox="0 0 2732 2732" width="2732" height="2732">
  <rect width="2732" height="2732" fill="#0B1220"/>
  <g transform="translate(1166,1166) scale(4)">
    <circle cx="50" cy="50" r="50" fill="#3ABFC6"/>
    <mask id="conek-peak-gap-splash">
      <rect width="100" height="100" fill="white"/>
      <polygon points="46,32 54,32 70,70 30,70" fill="black"/>
    </mask>
    <path fill="#fff" fill-rule="evenodd" mask="url(#conek-peak-gap-splash)" d="M50 21a24 24 0 1 1 0 48 24 24 0 0 1 0-48Zm0 11a13 13 0 1 0 0 26 13 13 0 0 0 0-26Z"/>
    <polygon fill="#fff" points="50,33 65,66 35,66"/>
    <path d="M31 61 22 84M69 61l9 23" stroke="#fff" stroke-width="7" stroke-linecap="round" fill="none"/>
  </g>
</svg>
