<svg xmlns="http://www.w3.org/2000/svg" viewBox="0 0 1080 1080">
  <rect width="1080" height="1080" rx="200" fill="#ffc40c"/>
  <path d="M691.82,939.06h134.01l-69.96-139.92c84.8-67.68,139.17-171.88,139.17-288.81,0-204.01-165.39-369.39-369.39-369.39S156.26,306.32,156.26,510.33c0,116.93,54.37,221.13,139.17,288.81l-69.96,139.92h133.95l165.97-333.77,166.43,333.77ZM578.87,445.25c-21.35-43.18-85.97-42.68-106.83.67l-121.14,242.28h0c-46.11-45.29-74.78-108.28-74.78-177.87,0-137.59,111.94-249.53,249.53-249.53s249.53,111.94,249.53,249.53c0,69.59-28.67,132.58-74.78,177.87l-121.52-242.95Z" fill="#231f20"/>
</svg>
